<svg width="16" height="24" viewBox="0 0 16 24" fill="none" xmlns="http://www.w3.org/2000/svg">
<path d="M5.20129 14.0217C5.27401 13.4742 4.88914 12.9714 4.34166 12.8987C3.79419 12.826 3.29142 13.2109 3.21871 13.7583L5.20129 14.0217ZM3 23L2.00871 22.8683C1.95815 23.249 2.13002 23.625 2.45096 23.8358C2.7719 24.0466 3.18522 24.0551 3.5145 23.8575L3 23ZM8 20L8.5145 19.1425C8.19781 18.9525 7.80219 18.9525 7.4855 19.1425L8 20ZM13 23L12.4855 23.8575C12.8148 24.055 13.228 24.0466 13.549 23.8358C13.8699 23.625 14.0418 23.2491 13.9913 22.8685L13 23ZM12.7813 13.7485C12.7087 13.201 12.206 12.816 11.6585 12.8887C11.111 12.9613 10.726 13.464 10.7987 14.0115L12.7813 13.7485ZM14 8C14 11.3137 11.3137 14 8 14V16C12.4183 16 16 12.4183 16 8H14ZM8 14C4.68629 14 2 11.3137 2 8H0C0 12.4183 3.58172 16 8 16V14ZM2 8C2 4.68629 4.68629 2 8 2V0C3.58172 0 0 3.58172 0 8H2ZM8 2C11.3137 2 14 4.68629 14 8H16C16 3.58172 12.4183 0 8 0V2ZM3.21871 13.7583L2.00871 22.8683L3.99129 23.1317L5.20129 14.0217L3.21871 13.7583ZM3.5145 23.8575L8.5145 20.8575L7.4855 19.1425L2.4855 22.1425L3.5145 23.8575ZM7.4855 20.8575L12.4855 23.8575L13.5145 22.1425L8.5145 19.1425L7.4855 20.8575ZM13.9913 22.8685L12.7813 13.7485L10.7987 14.0115L12.0087 23.1315L13.9913 22.8685Z" fill="#B3CCD5"/>
</svg>
